<?xml version="1.0" standalone="no"?>
<!DOCTYPE svg PUBLIC "-//W3C//DTD SVG 20010904//EN"
 "http://www.w3.org/TR/2001/REC-SVG-20010904/DTD/svg10.dtd">
<svg version="1.0" xmlns="http://www.w3.org/2000/svg"
 width="648.000000pt" height="648.000000pt" viewBox="0 0 648.000000 648.000000"
 preserveAspectRatio="xMidYMid meet">
<metadata>
Created by potrace 1.11, written by Peter Selinger 2001-2013
</metadata>
<g transform="translate(0.000000,648.000000) scale(0.100000,-0.100000)"
fill="#000000" stroke="none">
<path d="M0 4254 c0 -1867 2 -2225 14 -2221 7 3 44 25 82 49 130 84 289 168
478 253 219 98 273 127 456 243 359 226 405 252 655 356 88 37 174 74 191 81
17 8 73 31 125 51 87 34 102 37 209 38 l114 1 16 -30 c8 -16 18 -32 21 -35 4
-3 21 -50 38 -105 17 -55 37 -109 46 -120 15 -19 15 -19 9 10 -4 17 -13 43
-21 59 -18 35 -30 149 -14 126 6 -8 11 -25 11 -37 0 -13 5 -23 11 -23 5 0 7
-4 4 -10 -3 -6 -2 -10 4 -10 12 0 42 -57 61 -115 7 -22 19 -46 27 -53 7 -7 13
-19 13 -27 0 -7 22 -33 50 -58 33 -30 50 -53 50 -69 0 -18 2 -20 10 -8 5 8 10
11 11 5 0 -5 4 -1 9 10 9 19 9 19 16 -2 7 -25 29 -31 37 -10 4 9 6 9 6 0 1 -7
7 -13 15 -13 8 0 18 -9 21 -21 4 -11 9 -18 12 -15 4 3 12 1 20 -5 19 -17 17
15 -4 47 -10 17 -13 28 -6 32 5 4 12 14 15 22 3 10 10 6 23 -15 10 -17 31 -43
47 -59 23 -24 29 -26 34 -12 5 13 9 14 20 5 24 -20 27 -2 6 28 -22 32 -40 99
-24 89 6 -3 13 0 15 6 3 7 6 5 6 -6 1 -11 4 -17 7 -13 4 3 22 -13 40 -36 19
-23 39 -48 45 -55 9 -11 14 -10 28 2 10 9 27 16 38 16 16 0 23 11 33 46 11 39
11 53 -3 97 -9 29 -21 84 -27 122 -20 134 -42 250 -62 330 -18 74 -24 84 -81
140 -84 83 -138 171 -182 298 -37 105 -53 135 -42 78 7 -34 -10 -55 -33 -41
-12 8 -12 10 3 15 26 10 -4 35 -42 35 -23 0 -31 5 -31 18 0 26 30 64 46 58 8
-3 14 -1 14 4 0 6 7 10 15 10 8 0 15 -5 15 -12 0 -6 2 -9 5 -6 5 4 -5 55 -45
243 -19 86 -21 116 -14 215 4 63 7 178 5 255 -2 147 11 289 34 365 22 75 87
188 149 260 38 45 131 110 156 110 11 0 20 4 20 8 0 9 130 7 215 -3 57 -7 183
-44 203 -60 8 -5 30 -24 49 -42 19 -18 38 -33 42 -35 15 -7 121 -235 121 -262
0 -22 4 -27 16 -22 13 5 15 1 10 -19 -7 -27 4 -55 35 -86 38 -38 19 -64 -59
-79 -65 -12 -121 -35 -149 -62 -32 -29 -29 -34 17 -36 22 -1 40 3 40 9 0 5 4
8 9 5 5 -3 25 1 46 9 37 16 121 23 132 11 8 -7 -27 -47 -37 -41 -9 6 -110 -19
-137 -33 -13 -7 -28 -22 -34 -33 -12 -24 -1 -20 34 9 32 28 18 -5 -15 -35 -30
-27 -58 -65 -58 -78 0 -3 9 -5 20 -5 13 0 25 11 34 34 19 46 34 52 48 22 10
-22 18 -26 57 -26 32 0 42 -3 31 -9 -10 -7 -1 -11 30 -13 36 -2 44 -6 42 -20
-2 -15 5 -18 46 -18 l49 0 11 -42 c11 -43 24 -110 27 -138 1 -8 15 -49 30 -90
27 -70 28 -84 27 -219 -1 -125 -6 -160 -32 -260 -16 -64 -33 -127 -36 -141 -4
-14 24 36 62 110 l69 135 3 -52 c3 -50 -19 -110 -72 -202 -17 -29 -107 -123
-113 -117 -2 2 -29 -23 -60 -55 -31 -33 -79 -73 -107 -90 -28 -16 -41 -27 -28
-24 25 7 31 -10 6 -19 -9 -4 -14 -9 -11 -13 4 -3 13 0 22 7 8 7 15 9 15 6 0
-4 9 2 21 13 13 12 18 25 14 33 -6 10 -5 11 5 1 11 -10 17 -9 32 4 10 9 18 14
19 12 9 -54 7 -68 -8 -74 -15 -5 -15 -8 -3 -15 11 -7 12 -14 2 -34 -6 -14 -8
-28 -3 -30 6 -4 7 -44 2 -89 -1 -4 -23 -23 -51 -43 -27 -20 -50 -39 -50 -44 0
-17 60 -33 84 -22 15 7 28 7 41 0 13 -8 16 -8 10 2 -4 7 -2 16 6 21 19 12 49
11 49 -2 0 -5 -4 -7 -10 -4 -5 3 -7 0 -4 -8 3 -9 -7 -20 -30 -31 -40 -19 -48
-31 -15 -23 18 5 14 -2 -17 -36 -21 -23 -42 -43 -47 -45 -4 -2 -7 -13 -7 -24
0 -15 4 -18 23 -12 30 9 49 23 110 81 29 27 57 48 64 46 7 -2 22 1 34 7 25 14
24 11 -16 -52 -18 -28 -40 -49 -55 -53 -22 -6 -23 -8 -7 -17 23 -12 77 27 116
83 14 21 33 38 42 36 8 -1 28 6 43 17 33 21 95 24 107 5 5 -8 9 -10 9 -5 0 5
6 4 13 -3 10 -8 17 -7 25 1 9 9 12 8 12 -7 0 -18 3 -17 26 7 25 25 27 25 55 9
16 -9 29 -21 29 -28 0 -14 -34 -98 -57 -137 -9 -16 -11 -26 -4 -22 6 4 30 45
52 91 l42 83 42 -23 c24 -12 56 -27 73 -33 25 -9 29 -14 24 -37 -4 -25 -3 -26
16 -16 11 6 22 16 24 22 2 7 12 7 31 0 23 -9 26 -15 21 -35 -5 -21 -3 -25 14
-21 15 3 19 0 15 -11 -4 -12 0 -14 23 -8 l29 6 -22 -16 c-25 -19 -27 -24 -14
-45 9 -14 23 -17 148 -25 40 -3 79 -8 85 -13 7 -4 29 -8 48 -9 54 -1 100 -15
100 -30 0 -8 6 -11 15 -8 22 9 117 -49 240 -145 61 -48 130 -102 155 -121 25
-19 47 -37 50 -40 3 -3 32 -27 65 -52 69 -53 247 -226 456 -444 154 -161 222
-224 367 -347 l92 -77 0 2595 0 2595 -3240 0 -3240 0 0 -2226z m3654 197 c3
-5 -1 -14 -8 -20 -16 -13 -32 2 -21 19 8 12 22 13 29 1z m52 -38 c-10 -10 -19
5 -10 18 6 11 8 11 12 0 2 -7 1 -15 -2 -18z m346 -935 c-7 -7 -12 -8 -12 -2 0
6 3 14 7 17 3 4 9 5 12 2 2 -3 -1 -11 -7 -17z m-5 -50 c-3 -7 -5 -2 -5 12 0
14 2 19 5 13 2 -7 2 -19 0 -25z m-84 -673 c-3 -9 -8 -14 -10 -11 -3 3 -2 9 2
15 9 16 15 13 8 -4z m-30 -30 c-3 -9 -8 -14 -10 -11 -3 3 -2 9 2 15 9 16 15
13 8 -4z"/>
<path d="M2928 4542 c-46 -5 -32 -19 35 -32 92 -19 144 -21 156 -6 27 33 -70
52 -191 38z"/>
<path d="M2900 4429 c-35 -16 -100 -75 -100 -91 0 -5 7 -8 15 -8 8 0 15 -4 15
-9 0 -4 16 -7 35 -4 19 2 35 0 35 -4 0 -5 12 -9 27 -10 26 -1 26 0 9 13 -10 7
-24 15 -30 17 -7 3 -7 9 3 20 19 24 28 21 35 -9 7 -25 9 -26 63 -21 49 5 72
17 73 39 0 9 42 -2 60 -16 10 -8 9 -4 -3 14 -9 13 -17 33 -17 43 0 44 -141 61
-220 26z m210 -19 c0 -5 -4 -10 -10 -10 -5 0 -10 5 -10 10 0 6 5 10 10 10 6 0
10 -4 10 -10z m-120 -45 c-7 -8 -16 -12 -21 -9 -13 8 -1 24 18 24 13 0 13 -3
3 -15z m64 -10 c-4 -8 -8 -15 -10 -15 -2 0 -4 7 -4 15 0 8 4 15 10 15 5 0 7
-7 4 -15z"/>
<path d="M3469 3949 c-10 -6 -7 -9 14 -9 29 0 35 5 14 13 -8 3 -20 1 -28 -4z"/>
<path d="M3720 3748 c-11 -12 -20 -32 -20 -45 0 -13 -4 -23 -9 -23 -5 0 -11
-7 -15 -15 -10 -26 10 -16 62 30 27 25 55 45 61 45 20 0 11 18 -11 24 -37 9
-46 7 -68 -16z"/>
<path d="M3084 3711 c-17 -4 -36 -11 -42 -15 -17 -11 -15 -26 5 -26 9 0 31
-11 50 -26 l33 -25 0 25 c0 14 -5 28 -11 32 -6 3 -9 15 -6 25 3 11 4 19 4 18
-1 -1 -16 -4 -33 -8z"/>
<path d="M3863 3374 c-3 -10 -11 -22 -17 -26 -6 -4 -8 -10 -4 -13 4 -4 14 5
24 19 9 15 14 29 11 33 -4 3 -10 -3 -14 -13z"/>
<path d="M2473 2759 c7 -18 19 -35 27 -37 11 -4 11 0 -2 15 -10 11 -18 25 -18
31 0 6 -5 14 -10 17 -6 4 -5 -8 3 -26z"/>
<path d="M3845 2720 c-16 -17 -16 -20 -3 -15 9 4 19 13 22 21 7 19 2 18 -19
-6z"/>
<path d="M1635 2058 c-16 -12 -46 -36 -66 -52 -20 -17 -55 -47 -79 -66 -24
-19 -56 -46 -71 -60 -65 -61 -181 -142 -252 -177 -29 -13 -61 -30 -72 -36
-186 -109 -275 -150 -448 -207 -37 -12 -73 -27 -80 -34 -10 -10 -61 -25 -146
-41 -14 -2 -29 -9 -34 -14 -5 -5 -15 -7 -22 -4 -8 2 -23 0 -34 -6 -17 -10 -23
-8 -33 9 -7 11 -18 20 -25 20 -16 0 -16 -2 -3 -34 8 -21 6 -26 -5 -26 -13 0
-13 -4 -3 -22 7 -13 16 -25 19 -28 19 -17 59 -108 64 -148 4 -26 18 -64 31
-84 14 -23 24 -53 24 -75 0 -28 3 -34 10 -23 8 12 10 10 10 -10 0 -15 4 -30 9
-35 19 -20 51 -86 51 -105 0 -11 4 -20 8 -20 9 0 35 -55 47 -97 4 -13 12 -23
19 -23 6 0 20 -23 30 -50 10 -28 22 -50 27 -50 5 0 21 -19 36 -42 49 -77 181
-227 291 -333 41 -38 100 -96 133 -127 l60 -58 279 0 c203 0 281 3 286 12 4 6
8 69 8 139 1 70 5 131 9 135 5 5 35 7 68 6 60 -3 72 5 43 29 -13 11 -23 11
-59 -2 -48 -18 -67 -10 -84 34 -8 20 -7 30 5 42 9 8 20 15 26 15 7 0 8 14 4
37 -41 238 -42 345 -7 551 11 59 22 166 25 237 8 145 19 233 46 347 10 43 17
85 15 95 -2 10 -9 72 -15 138 -25 247 -59 305 -145 243z"/>
<path d="M5032 1429 c-25 -10 -36 -19 -70 -63 -16 -21 -19 -32 -11 -37 8 -5 8
-15 0 -42 -7 -20 -15 -37 -19 -39 -16 -7 -180 -216 -214 -273 -58 -98 -68
-122 -74 -180 -2 -30 -14 -80 -24 -111 -11 -32 -20 -66 -20 -76 0 -11 -16 -51
-35 -89 -19 -39 -35 -84 -35 -100 0 -16 -9 -47 -20 -69 -11 -22 -20 -53 -20
-69 0 -22 -8 -36 -30 -52 -23 -17 -27 -26 -19 -36 16 -19 2 -60 -27 -79 -24
-16 -64 -81 -64 -104 0 -7 207 -10 650 -10 l651 0 59 30 c33 17 67 30 76 30
10 0 15 3 11 6 -5 5 52 38 154 91 15 7 32 20 39 28 7 8 17 15 22 15 8 0 77 46
153 102 17 13 53 39 80 60 59 43 124 73 183 83 23 4 45 11 48 17 7 11 -69 2
-136 -17 -50 -14 -62 -10 -120 40 -19 17 -51 37 -70 45 -19 7 -37 16 -40 19
-9 10 -128 91 -134 91 -9 0 -148 96 -173 119 -12 12 -25 21 -28 21 -6 0 -22
12 -53 40 -97 86 -297 262 -328 289 -71 61 -144 132 -144 141 0 4 -4 10 -8 12
-12 5 -92 113 -92 125 0 5 -10 19 -23 31 -25 23 -57 27 -95 11z"/>
<path d="M0 250 l0 -250 201 0 c110 0 199 4 197 8 -4 10 -115 136 -176 200
-24 24 -40 47 -36 51 4 3 9 0 11 -6 3 -7 10 -13 17 -13 7 0 27 -16 44 -36 30
-34 52 -38 52 -10 0 8 -20 29 -45 47 -24 19 -45 40 -45 47 0 6 -7 12 -15 12
-8 0 -19 9 -25 20 -6 11 -15 18 -21 15 -5 -4 -12 2 -16 12 -4 10 -26 37 -50
60 -24 24 -43 46 -43 50 0 5 -12 16 -25 26 l-25 18 0 -251z m39 203 c-5 -28 3
-53 16 -53 8 0 15 -4 15 -10 0 -10 -49 8 -51 19 -7 32 -4 51 7 51 8 0 13 -3
13 -7z m71 -114 c0 -6 -4 -7 -10 -4 -5 3 -10 11 -10 16 0 6 5 7 10 4 6 -3 10
-11 10 -16z"/>
<path d="M4405 189 c-10 -15 3 -25 16 -12 7 7 7 13 1 17 -6 3 -14 1 -17 -5z"/>
<path d="M324 167 c3 -10 6 -21 6 -23 0 -2 7 -4 15 -4 9 0 18 -6 21 -14 3 -8
12 -17 20 -20 11 -4 11 0 -2 19 -9 14 -22 25 -30 25 -7 0 -18 8 -24 18 -11 16
-11 16 -6 -1z"/>
</g>
</svg>
