<svg width="489" height="454" viewBox="0 0 489 454" fill="none" xmlns="http://www.w3.org/2000/svg">
<path d="M188.903 289.644V157.058L324.739 21.2229C333.427 12.5344 345.211 7.65332 357.499 7.65332H433.305C447.176 7.65332 454.123 24.4242 444.314 34.2326L188.903 289.644Z" fill="white" stroke="#DC0073" stroke-width="15"/>
<path d="M324.739 432.48L188.903 296.645V165.267C188.903 165.139 188.922 165.072 188.929 165.049C188.937 165.024 188.946 165.006 188.959 164.988C188.989 164.945 189.068 164.864 189.212 164.805C189.356 164.745 189.469 164.747 189.52 164.755C189.542 164.759 189.561 164.765 189.585 164.777C189.607 164.789 189.666 164.823 189.757 164.913L444.314 419.471C454.123 429.279 447.176 446.05 433.305 446.05H357.499C345.211 446.05 333.427 441.169 324.739 432.48Z" fill="white" stroke="#DC0073" stroke-width="15"/>
<path d="M67.3958 335.177H141.402V452.847H67.3958V335.177Z" fill="#A3CEF1"/>
<path d="M194.757 248.633C201.666 248.633 207.346 254.254 206.513 261.114C205.382 270.433 202.988 279.574 199.381 288.282C194.174 300.853 186.542 312.275 176.921 321.895C167.3 331.516 155.879 339.148 143.308 344.355C130.738 349.562 117.265 352.242 103.659 352.242C90.0529 352.242 76.58 349.562 64.0096 344.355C51.4393 339.148 40.0175 331.516 30.3966 321.895C20.7756 312.275 13.1439 300.853 7.93703 288.282C4.32991 279.574 1.93552 270.433 0.80474 261.114C-0.0275913 254.254 5.65163 248.633 12.5612 248.633L13.4415 248.633C20.3511 248.633 25.8498 254.27 26.9574 261.09C27.9184 267.007 29.5629 272.806 31.8675 278.37C35.7726 287.798 41.4964 296.364 48.7122 303.58C55.9279 310.796 64.4942 316.519 73.922 320.425C83.3498 324.33 93.4544 326.34 103.659 326.34C113.864 326.34 123.968 324.33 133.396 320.425C142.824 316.519 151.39 310.796 158.606 303.58C165.821 296.364 171.545 287.798 175.45 278.37C177.755 272.806 179.4 267.007 180.36 261.09C181.468 254.27 186.967 248.633 193.876 248.633H194.757Z" fill="#A3CEF1"/>
<rect x="14.1077" y="404" width="180" height="50" rx="25" fill="#A3CEF1"/>
<rect x="48.0881" y="7.5" width="111.072" height="297.214" rx="55.5358" fill="white" stroke="#A3CEF1" stroke-width="15"/>
<path d="M40.5884 113.608H81.4895C85.4758 113.608 88.7073 116.84 88.7073 120.826C88.7073 124.813 85.4758 128.044 81.4895 128.044H40.5884V113.608Z" fill="#320E3B"/>
<path d="M40.5884 142.524H81.4895C85.4758 142.524 88.7073 145.756 88.7073 149.742C88.7073 153.729 85.4758 156.96 81.4895 156.96H40.5884V142.524Z" fill="#320E3B"/>
<path d="M40.5889 84.6943H81.49C85.4763 84.6943 88.7078 87.9259 88.7078 91.9122C88.7078 95.8985 85.4763 99.13 81.49 99.13H40.5889V84.6943Z" fill="#320E3B"/>
<path d="M166.708 128.046H125.807C121.82 128.046 118.589 124.814 118.589 120.828V120.828C118.589 116.842 121.82 113.61 125.807 113.61H166.708V128.046Z" fill="#320E3B"/>
<path d="M166.708 99.1299H125.807C121.82 99.1299 118.589 95.8983 118.589 91.912V91.912C118.589 87.9257 121.82 84.6942 125.807 84.6942H166.708V99.1299Z" fill="#320E3B"/>
<path d="M166.707 156.96H125.806C121.82 156.96 118.588 153.728 118.588 149.742V149.742C118.588 145.756 121.82 142.524 125.806 142.524H166.707V156.96Z" fill="#320E3B"/>
<path d="M40.5884 200.608H81.4895C85.4758 200.608 88.7073 203.84 88.7073 207.826V207.826C88.7073 211.813 85.4758 215.044 81.4895 215.044H40.5884V200.608Z" fill="#320E3B"/>
<path d="M40.5884 229.524H81.4895C85.4758 229.524 88.7073 232.756 88.7073 236.742V236.742C88.7073 240.729 85.4758 243.96 81.4895 243.96H40.5884V229.524Z" fill="#320E3B"/>
<path d="M40.5889 171.694H81.49C85.4763 171.694 88.7078 174.926 88.7078 178.912V178.912C88.7078 182.898 85.4763 186.13 81.49 186.13H40.5889V171.694Z" fill="#320E3B"/>
<path d="M166.708 215.046H125.807C121.82 215.046 118.589 211.814 118.589 207.828V207.828C118.589 203.842 121.82 200.61 125.807 200.61H166.708V215.046Z" fill="#320E3B"/>
<path d="M166.708 186.13H125.807C121.82 186.13 118.589 182.898 118.589 178.912V178.912C118.589 174.926 121.82 171.694 125.807 171.694H166.708V186.13Z" fill="#320E3B"/>
<path d="M166.707 243.96H125.806C121.82 243.96 118.588 240.728 118.588 236.742V236.742C118.588 232.756 121.82 229.524 125.806 229.524H166.707V243.96Z" fill="#320E3B"/>
</svg>
