<svg width="750" height="750" viewBox="0 0 750 750" fill="none" xmlns="http://www.w3.org/2000/svg">
<path d="M750 375C750 582.107 582.107 750 375 750C167.893 750 0 582.107 0 375C0 167.893 167.893 0 375 0C582.107 0 750 167.893 750 375Z" fill="white" fill-opacity="0.1"/>
<path d="M342.853 437.644V305.058L478.688 169.223C487.377 160.534 499.161 155.653 511.448 155.653H587.255C601.126 155.653 608.072 172.424 598.264 182.233L342.853 437.644Z" fill="white" stroke="#DC0073" stroke-width="15"/>
<path d="M478.688 580.48L342.853 444.645V313.267C342.853 313.139 342.871 313.072 342.879 313.049C342.887 313.024 342.896 313.006 342.909 312.988C342.939 312.945 343.018 312.864 343.162 312.805C343.305 312.745 343.418 312.747 343.47 312.755C343.491 312.759 343.511 312.765 343.534 312.777C343.556 312.789 343.616 312.823 343.707 312.913L598.264 567.471C608.072 577.279 601.126 594.05 587.255 594.05H511.448C499.161 594.05 487.377 589.169 478.688 580.48Z" fill="white" stroke="#DC0073" stroke-width="15"/>
<path d="M221.345 483.177H295.352V600.847H221.345V483.177Z" fill="#A3CEF1"/>
<path d="M348.706 396.633C355.616 396.633 361.295 402.254 360.463 409.114C359.332 418.433 356.938 427.574 353.331 436.282C348.124 448.853 340.492 460.275 330.871 469.895C321.25 479.516 309.828 487.148 297.258 492.355C284.688 497.562 271.215 500.242 257.609 500.242C244.003 500.242 230.53 497.562 217.959 492.355C205.389 487.148 193.967 479.516 184.346 469.895C174.725 460.275 167.094 448.853 161.887 436.282C158.28 427.574 155.885 418.433 154.754 409.114C153.922 402.254 159.601 396.633 166.511 396.633L167.391 396.633C174.301 396.633 179.799 402.27 180.907 409.09C181.868 415.007 183.513 420.806 185.817 426.37C189.722 435.798 195.446 444.364 202.662 451.58C209.878 458.796 218.444 464.519 227.872 468.425C237.299 472.33 247.404 474.34 257.609 474.34C267.813 474.34 277.918 472.33 287.346 468.425C296.773 464.519 305.34 458.796 312.555 451.58C319.771 444.364 325.495 435.798 329.4 426.37C331.705 420.806 333.349 415.007 334.31 409.09C335.418 402.27 340.916 396.633 347.826 396.633H348.706Z" fill="#A3CEF1"/>
<rect x="168.057" y="552" width="180" height="50" rx="25" fill="#A3CEF1"/>
<rect x="202.038" y="155.5" width="111.072" height="297.214" rx="55.5358" fill="white" stroke="#A3CEF1" stroke-width="15"/>
<path d="M194.538 261.608H235.439C239.425 261.608 242.657 264.84 242.657 268.826V268.826C242.657 272.813 239.425 276.044 235.439 276.044H194.538V261.608Z" fill="#320E3B"/>
<path d="M194.538 290.524H235.439C239.425 290.524 242.657 293.756 242.657 297.742V297.742C242.657 301.729 239.425 304.96 235.439 304.96H194.538V290.524Z" fill="#320E3B"/>
<path d="M194.539 232.694H235.44C239.426 232.694 242.658 235.926 242.658 239.912V239.912C242.658 243.898 239.426 247.13 235.44 247.13H194.539V232.694Z" fill="#320E3B"/>
<path d="M320.657 276.046H279.756C275.77 276.046 272.539 272.814 272.539 268.828V268.828C272.539 264.842 275.77 261.61 279.756 261.61H320.657V276.046Z" fill="#320E3B"/>
<path d="M320.657 247.13H279.756C275.77 247.13 272.539 243.898 272.539 239.912V239.912C272.539 235.926 275.77 232.694 279.756 232.694H320.657V247.13Z" fill="#320E3B"/>
<path d="M320.657 304.96H279.756C275.77 304.96 272.538 301.728 272.538 297.742V297.742C272.538 293.756 275.77 290.524 279.756 290.524H320.657V304.96Z" fill="#320E3B"/>
<path d="M194.538 348.608H235.439C239.425 348.608 242.657 351.84 242.657 355.826V355.826C242.657 359.813 239.425 363.044 235.439 363.044H194.538V348.608Z" fill="#320E3B"/>
<path d="M194.538 377.524H235.439C239.425 377.524 242.657 380.756 242.657 384.742V384.742C242.657 388.729 239.425 391.96 235.439 391.96H194.538V377.524Z" fill="#320E3B"/>
<path d="M194.539 319.694H235.44C239.426 319.694 242.658 322.926 242.658 326.912V326.912C242.658 330.898 239.426 334.13 235.44 334.13H194.539V319.694Z" fill="#320E3B"/>
<path d="M320.657 363.046H279.756C275.77 363.046 272.539 359.814 272.539 355.828V355.828C272.539 351.842 275.77 348.61 279.756 348.61H320.657V363.046Z" fill="#320E3B"/>
<path d="M320.657 334.13H279.756C275.77 334.13 272.539 330.898 272.539 326.912V326.912C272.539 322.926 275.77 319.694 279.756 319.694H320.657V334.13Z" fill="#320E3B"/>
<path d="M320.657 391.96H279.756C275.77 391.96 272.538 388.728 272.538 384.742V384.742C272.538 380.756 275.77 377.524 279.756 377.524H320.657V391.96Z" fill="#320E3B"/>
</svg>
