<svg width="360" height="360" viewBox="0 0 360 360" fill="none" xmlns="http://www.w3.org/2000/svg">
<path d="M360 180C360 279.411 279.411 360 180 360C80.5887 360 0 279.411 0 180C0 80.5887 80.5887 0 180 0C279.411 0 360 80.5887 360 180Z" fill="white" fill-opacity="0.15"/>
<path d="M154.288 212.93L154.288 145.937L219.79 80.4349C224.212 76.0125 230.21 73.528 236.464 73.528H272.622C280.397 73.528 284.29 82.9278 278.793 88.4253L154.288 212.93Z" fill="#A3CEF1" stroke="#320E3B" stroke-width="4.82942"/>
<path d="M219.79 279.422L154.288 213.92L154.288 146.926L278.793 271.431C284.29 276.929 280.397 286.328 272.622 286.328H236.464C230.21 286.328 224.212 283.844 219.79 279.422Z" fill="#DC0073" stroke="#320E3B" stroke-width="4.82942"/>
<path d="M104.275 234.248H135.15V286.081H104.275V234.248Z" fill="white" stroke="#320E3B" stroke-width="4.64773"/>
<mask id="path-5-inside-1" fill="white">
<path d="M163.047 190.383C166.384 190.383 169.127 193.097 168.723 196.41C168.178 200.87 167.03 205.246 165.304 209.414C162.804 215.448 159.141 220.93 154.523 225.549C149.905 230.167 144.423 233.83 138.389 236.329C132.355 238.828 125.888 240.115 119.357 240.115C112.826 240.115 106.359 238.828 100.325 236.329C94.2917 233.83 88.8093 230.167 84.1912 225.549C79.5732 220.93 75.9099 215.448 73.4106 209.414C71.6839 205.246 70.5362 200.87 69.9916 196.41C69.5872 193.097 72.3301 190.383 75.667 190.383L80.9892 190.383C84.3261 190.383 86.9742 193.111 87.5943 196.39C88.0057 198.565 88.6406 200.698 89.4919 202.753C91.1164 206.675 93.4976 210.239 96.4993 213.24C99.501 216.242 103.065 218.623 106.987 220.248C110.909 221.872 115.112 222.708 119.357 222.708C123.602 222.708 127.806 221.872 131.728 220.248C135.65 218.623 139.213 216.242 142.215 213.24C145.217 210.239 147.598 206.675 149.222 202.753C150.074 200.698 150.709 198.565 151.12 196.39C151.74 193.111 154.388 190.383 157.725 190.383H163.047Z"/>
</mask>
<path d="M163.047 190.383C166.384 190.383 169.127 193.097 168.723 196.41C168.178 200.87 167.03 205.246 165.304 209.414C162.804 215.448 159.141 220.93 154.523 225.549C149.905 230.167 144.423 233.83 138.389 236.329C132.355 238.828 125.888 240.115 119.357 240.115C112.826 240.115 106.359 238.828 100.325 236.329C94.2917 233.83 88.8093 230.167 84.1912 225.549C79.5732 220.93 75.9099 215.448 73.4106 209.414C71.6839 205.246 70.5362 200.87 69.9916 196.41C69.5872 193.097 72.3301 190.383 75.667 190.383L80.9892 190.383C84.3261 190.383 86.9742 193.111 87.5943 196.39C88.0057 198.565 88.6406 200.698 89.4919 202.753C91.1164 206.675 93.4976 210.239 96.4993 213.24C99.501 216.242 103.065 218.623 106.987 220.248C110.909 221.872 115.112 222.708 119.357 222.708C123.602 222.708 127.806 221.872 131.728 220.248C135.65 218.623 139.213 216.242 142.215 213.24C145.217 210.239 147.598 206.675 149.222 202.753C150.074 200.698 150.709 198.565 151.12 196.39C151.74 193.111 154.388 190.383 157.725 190.383H163.047Z" fill="#FDE74C" stroke="#320E3B" stroke-width="9.29546" mask="url(#path-5-inside-1)"/>
<rect x="83.0172" y="255.76" width="73.5028" height="30.8752" rx="15.4376" fill="white" stroke="#320E3B" stroke-width="4.64773"/>
<rect x="91.4078" y="73.3629" width="55.8667" height="145.215" rx="27.9333" fill="white" stroke="#320E3B" stroke-width="4.64773"/>
<path d="M89.084 121.729H108.584C110.517 121.729 112.084 123.296 112.084 125.229V125.229C112.084 127.162 110.517 128.729 108.584 128.729H89.084V121.729Z" fill="#320E3B"/>
<path d="M89.084 135.609H108.584C110.517 135.609 112.084 137.176 112.084 139.109V139.109C112.084 141.042 110.517 142.609 108.584 142.609H89.084V135.609Z" fill="#320E3B"/>
<path d="M89.084 107.852H108.584C110.517 107.852 112.084 109.419 112.084 111.352V111.352C112.084 113.285 110.517 114.852 108.584 114.852H89.084V107.852Z" fill="#320E3B"/>
<path d="M89.084 163.49H108.584C110.517 163.49 112.084 165.057 112.084 166.99V166.99C112.084 168.923 110.517 170.49 108.584 170.49H89.084V163.49Z" fill="#320E3B"/>
<path d="M89.084 177.37H108.584C110.517 177.37 112.084 178.937 112.084 180.87V180.87C112.084 182.803 110.517 184.37 108.584 184.37H89.084V177.37Z" fill="#320E3B"/>
<path d="M89.084 149.611H108.584C110.517 149.611 112.084 151.178 112.084 153.111V153.111C112.084 155.044 110.517 156.611 108.584 156.611H89.084V149.611Z" fill="#320E3B"/>
<path d="M149.621 170.42H130.121C128.188 170.42 126.621 168.853 126.621 166.92V166.92C126.621 164.987 128.188 163.42 130.121 163.42H149.621V170.42Z" fill="#320E3B"/>
<path d="M149.621 156.54H130.121C128.188 156.54 126.621 154.973 126.621 153.04V153.04C126.621 151.107 128.188 149.54 130.121 149.54H149.621V156.54Z" fill="#320E3B"/>
<path d="M149.621 184.299H130.121C128.188 184.299 126.621 182.732 126.621 180.799V180.799C126.621 178.866 128.188 177.299 130.121 177.299H149.621V184.299Z" fill="#320E3B"/>
<path d="M149.621 128.66H130.121C128.188 128.66 126.621 127.093 126.621 125.16V125.16C126.621 123.227 128.188 121.66 130.121 121.66H149.621V128.66Z" fill="#320E3B"/>
<path d="M149.621 114.78H130.121C128.188 114.78 126.621 113.213 126.621 111.28V111.28C126.621 109.347 128.188 107.78 130.121 107.78H149.621V114.78Z" fill="#320E3B"/>
<path d="M149.621 142.538H130.121C128.188 142.538 126.621 140.971 126.621 139.038V139.038C126.621 137.105 128.188 135.538 130.121 135.538H149.621V142.538Z" fill="#320E3B"/>
</svg>
